<mxfile host="app.diagrams.net" modified="2024-05-28T19:00:52.205Z" agent="Mozilla/5.0 (X11; Linux x86_64; rv:125.0) Gecko/20100101 Firefox/125.0" version="24.4.9" etag="TH85DckY4DbgmyUTr7eZ" type="github">
  <diagram name="Page-1" id="k4O3CV9EnMfYdV3RBo-L">
    <mxGraphModel>
      <root>
        <mxCell id="0" />
        <mxCell id="1" parent="0" />
      </root>
    </mxGraphModel>
  </diagram>
</mxfile>
